<svg width="118" height="41" viewBox="0 0 118 41" fill="none" xmlns="http://www.w3.org/2000/svg">
<mask id="path-1-inside-1_2578_15" fill="white">
<path d="M106.22 0L118 20.4033L106.22 40.8076H11.7803L0 20.4033L11.7803 0H106.22Z"/>
</mask>
<path d="M106.22 0L107.086 -0.500013L106.797 -1H106.22V0ZM118 20.4033L118.866 20.9033L119.155 20.4033L118.866 19.9033L118 20.4033ZM106.22 40.8076V41.8076H106.797L107.086 41.3076L106.22 40.8076ZM11.7803 40.8076L10.9142 41.3076L11.2029 41.8076H11.7803V40.8076ZM0 20.4033L-0.866018 19.9033L-1.1547 20.4033L-0.866028 20.9033L0 20.4033ZM11.7803 0V-1H11.2029L10.9143 -0.500013L11.7803 0ZM106.22 0L105.354 0.500013L117.134 20.9033L118 20.4033L118.866 19.9033L107.086 -0.500013L106.22 0ZM118 20.4033L117.134 19.9033L105.354 40.3076L106.22 40.8076L107.086 41.3076L118.866 20.9033L118 20.4033ZM106.22 40.8076V39.8076H11.7803V40.8076V41.8076H106.22V40.8076ZM11.7803 40.8076L12.6463 40.3076L0.866028 19.9033L0 20.4033L-0.866028 20.9033L10.9142 41.3076L11.7803 40.8076ZM0 20.4033L0.866018 20.9033L12.6463 0.500013L11.7803 0L10.9143 -0.500013L-0.866018 19.9033L0 20.4033ZM11.7803 0V1H106.22V0V-1H11.7803V0Z" fill="#F6F5F1" mask="url(#path-1-inside-1_2578_15)"/>
</svg>
